<mxfile host="app.diagrams.net" modified="2020-11-19T08:23:08.345Z" agent="5.0 (Windows NT 10.0; Win64; x64) AppleWebKit/537.36 (KHTML, like Gecko) Chrome/79.0.3945.88 Safari/537.36" etag="2JDB543NNalIc6fBMoVm" version="13.10.0" type="github">
  <diagram name="Page-1" id="74e2e168-ea6b-b213-b513-2b3c1d86103e">
    <mxGraphModel dx="2062" dy="1154" grid="0" gridSize="10" guides="1" tooltips="1" connect="1" arrows="1" fold="1" page="1" pageScale="1" pageWidth="1100" pageHeight="850" background="#ffffff" math="0" shadow="0">
      <root>
        <mxCell id="0" />
        <mxCell id="1" parent="0" />
        <mxCell id="PQnwg7gbkoCCEYcuPFPE-13" value="" style="rounded=0;whiteSpace=wrap;html=1;" vertex="1" parent="1">
          <mxGeometry x="695" y="210" width="190" height="240" as="geometry" />
        </mxCell>
        <mxCell id="PQnwg7gbkoCCEYcuPFPE-11" value="" style="rounded=0;whiteSpace=wrap;html=1;" vertex="1" parent="1">
          <mxGeometry x="420" y="210" width="190" height="240" as="geometry" />
        </mxCell>
        <mxCell id="PQnwg7gbkoCCEYcuPFPE-16" style="edgeStyle=orthogonalEdgeStyle;rounded=0;orthogonalLoop=1;jettySize=auto;html=1;exitX=0.75;exitY=1;exitDx=0;exitDy=0;entryX=0.75;entryY=0;entryDx=0;entryDy=0;" edge="1" parent="1" source="PQnwg7gbkoCCEYcuPFPE-2" target="PQnwg7gbkoCCEYcuPFPE-1">
          <mxGeometry relative="1" as="geometry" />
        </mxCell>
        <mxCell id="PQnwg7gbkoCCEYcuPFPE-2" value="envoy" style="rounded=1;whiteSpace=wrap;html=1;fillColor=#d5e8d4;strokeColor=#82b366;" vertex="1" parent="1">
          <mxGeometry x="449" y="250" width="120" height="60" as="geometry" />
        </mxCell>
        <mxCell id="PQnwg7gbkoCCEYcuPFPE-3" style="edgeStyle=orthogonalEdgeStyle;rounded=0;orthogonalLoop=1;jettySize=auto;html=1;exitX=0.5;exitY=0;exitDx=0;exitDy=0;entryX=0.5;entryY=1;entryDx=0;entryDy=0;" edge="1" parent="1" source="PQnwg7gbkoCCEYcuPFPE-1" target="PQnwg7gbkoCCEYcuPFPE-2">
          <mxGeometry relative="1" as="geometry" />
        </mxCell>
        <mxCell id="PQnwg7gbkoCCEYcuPFPE-1" value="服务a" style="rounded=1;whiteSpace=wrap;html=1;fillColor=#e1d5e7;strokeColor=#9673a6;" vertex="1" parent="1">
          <mxGeometry x="449" y="350" width="120" height="60" as="geometry" />
        </mxCell>
        <mxCell id="PQnwg7gbkoCCEYcuPFPE-7" style="edgeStyle=orthogonalEdgeStyle;rounded=0;orthogonalLoop=1;jettySize=auto;html=1;exitX=1;exitY=0.5;exitDx=0;exitDy=0;entryX=0;entryY=0.5;entryDx=0;entryDy=0;" edge="1" parent="1" source="PQnwg7gbkoCCEYcuPFPE-2" target="PQnwg7gbkoCCEYcuPFPE-8">
          <mxGeometry relative="1" as="geometry">
            <mxPoint x="690" y="280" as="targetPoint" />
          </mxGeometry>
        </mxCell>
        <mxCell id="PQnwg7gbkoCCEYcuPFPE-15" style="edgeStyle=orthogonalEdgeStyle;rounded=0;orthogonalLoop=1;jettySize=auto;html=1;exitX=0;exitY=0.75;exitDx=0;exitDy=0;entryX=1;entryY=0.75;entryDx=0;entryDy=0;" edge="1" parent="1" source="PQnwg7gbkoCCEYcuPFPE-8" target="PQnwg7gbkoCCEYcuPFPE-2">
          <mxGeometry relative="1" as="geometry" />
        </mxCell>
        <mxCell id="PQnwg7gbkoCCEYcuPFPE-8" value="服务b" style="rounded=1;whiteSpace=wrap;html=1;fillColor=#e1d5e7;strokeColor=#9673a6;" vertex="1" parent="1">
          <mxGeometry x="730" y="250" width="120" height="60" as="geometry" />
        </mxCell>
        <mxCell id="PQnwg7gbkoCCEYcuPFPE-14" value="envoy" style="rounded=1;whiteSpace=wrap;html=1;fillColor=#d5e8d4;strokeColor=#82b366;" vertex="1" parent="1">
          <mxGeometry x="730" y="350" width="120" height="60" as="geometry" />
        </mxCell>
        <mxCell id="PQnwg7gbkoCCEYcuPFPE-17" value="" style="rounded=0;whiteSpace=wrap;html=1;" vertex="1" parent="1">
          <mxGeometry x="695" y="530" width="190" height="240" as="geometry" />
        </mxCell>
        <mxCell id="PQnwg7gbkoCCEYcuPFPE-18" value="" style="rounded=0;whiteSpace=wrap;html=1;" vertex="1" parent="1">
          <mxGeometry x="420" y="530" width="190" height="240" as="geometry" />
        </mxCell>
        <mxCell id="PQnwg7gbkoCCEYcuPFPE-19" style="edgeStyle=orthogonalEdgeStyle;rounded=0;orthogonalLoop=1;jettySize=auto;html=1;exitX=0.75;exitY=1;exitDx=0;exitDy=0;entryX=0.75;entryY=0;entryDx=0;entryDy=0;" edge="1" parent="1" source="PQnwg7gbkoCCEYcuPFPE-20" target="PQnwg7gbkoCCEYcuPFPE-22">
          <mxGeometry relative="1" as="geometry" />
        </mxCell>
        <mxCell id="PQnwg7gbkoCCEYcuPFPE-20" value="envoy" style="rounded=1;whiteSpace=wrap;html=1;fillColor=#d5e8d4;strokeColor=#82b366;" vertex="1" parent="1">
          <mxGeometry x="449" y="570" width="120" height="60" as="geometry" />
        </mxCell>
        <mxCell id="PQnwg7gbkoCCEYcuPFPE-21" style="edgeStyle=orthogonalEdgeStyle;rounded=0;orthogonalLoop=1;jettySize=auto;html=1;exitX=0.5;exitY=0;exitDx=0;exitDy=0;entryX=0.5;entryY=1;entryDx=0;entryDy=0;" edge="1" parent="1" source="PQnwg7gbkoCCEYcuPFPE-22" target="PQnwg7gbkoCCEYcuPFPE-20">
          <mxGeometry relative="1" as="geometry" />
        </mxCell>
        <mxCell id="PQnwg7gbkoCCEYcuPFPE-22" value="服务a" style="rounded=1;whiteSpace=wrap;html=1;fillColor=#e1d5e7;strokeColor=#9673a6;" vertex="1" parent="1">
          <mxGeometry x="449" y="670" width="120" height="60" as="geometry" />
        </mxCell>
        <mxCell id="PQnwg7gbkoCCEYcuPFPE-23" style="edgeStyle=orthogonalEdgeStyle;rounded=0;orthogonalLoop=1;jettySize=auto;html=1;exitX=1;exitY=0.5;exitDx=0;exitDy=0;entryX=0;entryY=0.5;entryDx=0;entryDy=0;" edge="1" parent="1" source="PQnwg7gbkoCCEYcuPFPE-20" target="PQnwg7gbkoCCEYcuPFPE-25">
          <mxGeometry relative="1" as="geometry">
            <mxPoint x="690" y="600" as="targetPoint" />
          </mxGeometry>
        </mxCell>
        <mxCell id="PQnwg7gbkoCCEYcuPFPE-24" style="edgeStyle=orthogonalEdgeStyle;rounded=0;orthogonalLoop=1;jettySize=auto;html=1;exitX=0;exitY=0.75;exitDx=0;exitDy=0;entryX=1;entryY=0.75;entryDx=0;entryDy=0;" edge="1" parent="1" source="PQnwg7gbkoCCEYcuPFPE-25" target="PQnwg7gbkoCCEYcuPFPE-20">
          <mxGeometry relative="1" as="geometry" />
        </mxCell>
        <mxCell id="PQnwg7gbkoCCEYcuPFPE-27" style="edgeStyle=orthogonalEdgeStyle;rounded=0;orthogonalLoop=1;jettySize=auto;html=1;exitX=0.5;exitY=1;exitDx=0;exitDy=0;" edge="1" parent="1" source="PQnwg7gbkoCCEYcuPFPE-25" target="PQnwg7gbkoCCEYcuPFPE-26">
          <mxGeometry relative="1" as="geometry" />
        </mxCell>
        <mxCell id="PQnwg7gbkoCCEYcuPFPE-25" value="envoy" style="rounded=1;whiteSpace=wrap;html=1;fillColor=#d5e8d4;strokeColor=#82b366;" vertex="1" parent="1">
          <mxGeometry x="730" y="570" width="120" height="60" as="geometry" />
        </mxCell>
        <mxCell id="PQnwg7gbkoCCEYcuPFPE-28" style="edgeStyle=orthogonalEdgeStyle;rounded=0;orthogonalLoop=1;jettySize=auto;html=1;exitX=0.75;exitY=0;exitDx=0;exitDy=0;entryX=0.75;entryY=1;entryDx=0;entryDy=0;" edge="1" parent="1" source="PQnwg7gbkoCCEYcuPFPE-26" target="PQnwg7gbkoCCEYcuPFPE-25">
          <mxGeometry relative="1" as="geometry" />
        </mxCell>
        <mxCell id="PQnwg7gbkoCCEYcuPFPE-26" value="服务b" style="rounded=1;whiteSpace=wrap;html=1;fillColor=#d5e8d4;strokeColor=#82b366;" vertex="1" parent="1">
          <mxGeometry x="730" y="670" width="120" height="60" as="geometry" />
        </mxCell>
      </root>
    </mxGraphModel>
  </diagram>
</mxfile>
